<svg xmlns="http://www.w3.org/2000/svg" width="28.804" height="21.94" viewBox="0 0 28.804 21.94"><g transform="translate(0 -65)"><g transform="translate(0 65)"><path d="M26.272,61H2.532A2.536,2.536,0,0,0,0,63.532V80.409A2.536,2.536,0,0,0,2.532,82.94H26.272A2.536,2.536,0,0,0,28.8,80.409V63.532A2.536,2.536,0,0,0,26.272,61Zm-.35,1.688L14.456,74.155,2.889,62.688ZM1.688,80.059V63.873l8.128,8.058Zm1.193,1.193,8.133-8.133,2.85,2.825a.844.844,0,0,0,1.191,0l2.779-2.779,8.089,8.089Zm24.235-1.193L19.027,71.97l8.089-8.089Z" transform="translate(0 -61)"/></g></g></svg>