<svg xmlns="http://www.w3.org/2000/svg" width="65.213" height="65.225" viewBox="0 0 65.213 65.225"><defs><style>.a{fill:#f7b692;}</style></defs><g transform="translate(-0.449)"><path class="a" d="M65.5,19.177a23.834,23.834,0,0,0-1.516-7.913A16.708,16.708,0,0,0,54.436,1.72,23.9,23.9,0,0,0,46.524.2C43.032.038,41.924,0,33.068,0S23.1.038,19.626.191a23.84,23.84,0,0,0-7.912,1.516A15.915,15.915,0,0,0,5.928,5.479a16.059,16.059,0,0,0-3.759,5.772A23.9,23.9,0,0,0,.653,19.164c-.166,3.492-.2,4.6-.2,13.456S.488,42.583.64,46.062a23.832,23.832,0,0,0,1.517,7.913A16.706,16.706,0,0,0,11.7,63.518a23.9,23.9,0,0,0,7.913,1.516c3.478.153,4.587.191,13.443.191s9.964-.038,13.443-.191a23.827,23.827,0,0,0,7.912-1.516,16.683,16.683,0,0,0,9.544-9.543,23.914,23.914,0,0,0,1.516-7.913c.153-3.479.191-4.587.191-13.443S65.649,22.655,65.5,19.177ZM59.623,45.807A17.878,17.878,0,0,1,58.5,51.859a10.82,10.82,0,0,1-6.193,6.193,17.941,17.941,0,0,1-6.052,1.121c-3.44.153-4.472.191-13.175.191s-9.748-.038-13.175-.191a17.869,17.869,0,0,1-6.052-1.121,10.037,10.037,0,0,1-3.746-2.434,10.141,10.141,0,0,1-2.434-3.746A17.944,17.944,0,0,1,6.553,45.82c-.153-3.44-.191-4.473-.191-13.175S6.4,22.9,6.553,19.47a17.869,17.869,0,0,1,1.121-6.052,9.914,9.914,0,0,1,2.447-3.746,10.125,10.125,0,0,1,3.746-2.433,17.953,17.953,0,0,1,6.052-1.121c3.44-.153,4.473-.191,13.175-.191s9.748.038,13.175.191a17.878,17.878,0,0,1,6.052,1.121,10.029,10.029,0,0,1,3.746,2.433A10.138,10.138,0,0,1,58.5,13.417a17.95,17.95,0,0,1,1.121,6.052c.153,3.44.191,4.472.191,13.175S59.776,42.367,59.623,45.807Zm0,0"/><path class="a" d="M141.7,124.5a16.756,16.756,0,1,0,16.756,16.756A16.76,16.76,0,0,0,141.7,124.5Zm0,27.624a10.869,10.869,0,1,1,10.869-10.869A10.871,10.871,0,0,1,141.7,152.124Zm0,0" transform="translate(-108.636 -108.636)"/><path class="a" d="M370.273,92.513a3.912,3.912,0,1,1-3.912-3.912A3.912,3.912,0,0,1,370.273,92.513Zm0,0" transform="translate(-315.874 -77.312)"/></g></svg>