<svg xmlns="http://www.w3.org/2000/svg" width="57.564" height="57.564" viewBox="0 0 57.564 57.564"><defs><style>.a{fill:#f7b692;fill-rule:evenodd;}</style></defs><path class="a" d="M49.427,8.365A28.688,28.688,0,0,0,.49,28.522,28.368,28.368,0,0,0,4.316,42.783L.25,57.564,15.444,53.6a28.74,28.74,0,0,0,13.7,3.472h.012A28.634,28.634,0,0,0,57.814,28.545,28.281,28.281,0,0,0,49.427,8.365ZM29.152,52.252h-.01a23.88,23.88,0,0,1-12.125-3.3l-.87-.514L7.132,50.787l2.407-8.749-.567-.9A23.7,23.7,0,0,1,29.162,4.818a23.717,23.717,0,1,1-.01,47.434ZM42.219,34.5c-.716-.357-4.237-2.081-4.894-2.319s-1.134-.356-1.611.357-1.85,2.319-2.268,2.794-.835.535-1.552.178a19.581,19.581,0,0,1-5.759-3.538,21.514,21.514,0,0,1-3.984-4.937c-.417-.714,0-1.062.314-1.455a20.165,20.165,0,0,0,1.79-2.438,1.305,1.305,0,0,0-.06-1.249c-.179-.357-1.611-3.865-2.208-5.292-.582-1.389-1.172-1.2-1.612-1.223-.417-.021-.895-.025-1.373-.025a2.636,2.636,0,0,0-1.91.892,7.978,7.978,0,0,0-2.506,5.946c0,3.508,2.566,6.9,2.924,7.373s5.05,7.675,12.234,10.762a41.119,41.119,0,0,0,4.083,1.5,9.863,9.863,0,0,0,4.511.282c1.376-.2,4.237-1.724,4.834-3.389a5.929,5.929,0,0,0,.417-3.389C43.413,35.031,42.935,34.852,42.219,34.5Zm0,0" transform="translate(-0.25)"/></svg>